<?xml version="1.0" encoding="UTF-8" standalone="no"?>
<svg
   xmlns:dc="http://purl.org/dc/elements/1.1/"
   xmlns:cc="http://creativecommons.org/ns#"
   xmlns:rdf="http://www.w3.org/1999/02/22-rdf-syntax-ns#"
   xmlns:svg="http://www.w3.org/2000/svg"
   xmlns="http://www.w3.org/2000/svg"
   xmlns:sodipodi="http://sodipodi.sourceforge.net/DTD/sodipodi-0.dtd"
   xmlns:inkscape="http://www.inkscape.org/namespaces/inkscape"
   viewBox="0 0 567 250"
   height="250"
   width="567"
   xml:space="preserve"
   id="svg2"
   version="1.1"
   sodipodi:docname="fmz-ai-files.svg"
   inkscape:version="0.92.3 (2405546, 2018-03-11)"><sodipodi:namedview
     pagecolor="#ffffff"
     bordercolor="#666666"
     borderopacity="1"
     objecttolerance="10"
     gridtolerance="10"
     guidetolerance="10"
     inkscape:pageopacity="0"
     inkscape:pageshadow="2"
     inkscape:window-width="1920"
     inkscape:window-height="1031"
     id="namedview26"
     showgrid="false"
     inkscape:zoom="0.30729167"
     inkscape:cx="384"
     inkscape:cy="384"
     inkscape:window-x="0"
     inkscape:window-y="0"
     inkscape:window-maximized="1"
     inkscape:current-layer="svg2" /><metadata
     id="metadata8"><rdf:RDF><cc:Work
         rdf:about=""><dc:format>image/svg+xml</dc:format><dc:type
           rdf:resource="http://purl.org/dc/dcmitype/StillImage" /><dc:title></dc:title></cc:Work></rdf:RDF></metadata><defs
     id="defs6"><clipPath
       id="clipPath18"
       clipPathUnits="userSpaceOnUse"><path
         id="path16"
         d="M 0,576 H 576 V 0 H 0 Z"
         inkscape:connector-curvature="0" /></clipPath></defs><g
     transform="matrix(1.3333333,0,0,-1.3333333,-100.88136,510.33897)"
     id="g10"><g
       id="g12"><g
         clip-path="url(#clipPath18)"
         id="g14"><g
           transform="translate(247.1807,263.5918)"
           id="g20"><path
             id="path22"
             style="fill:#2b5e3d;fill-opacity:1;fill-rule:evenodd;stroke:none"
             d="m 0,0 c 0,19.049 -0.024,38.096 0.049,57.145 0.007,1.486 -1.078,4.106 1.67,4.078 2.032,-0.02 5.319,2.091 6.01,-2.221 0.347,-2.166 1.518,-0.684 2.375,-0.353 10.741,4.15 21.004,4.759 29.908,-4.157 1.197,-1.2 1.691,-0.531 2.576,0.376 7.973,8.174 17.611,7.925 27.325,4.552 6.941,-2.408 9.883,-8.574 11.131,-15.467 0.449,-2.481 0.634,-5.045 0.639,-7.572 0.042,-31.27 -0.005,-62.539 0.079,-93.813 0.007,-3.121 -0.163,-5.043 -4.197,-4.775 -2.871,0.193 -3.313,1.205 -3.291,3.695 0.106,11.426 0.046,22.858 0.046,34.285 0,19.842 -0.013,39.684 0.014,59.526 0.004,4 -0.437,7.93 -1.797,11.691 -2.096,5.803 -6.455,8.794 -12.729,8.92 -6.117,0.123 -10.771,-2.865 -13.012,-8.514 -1.42,-3.576 -1.858,-7.332 -1.857,-11.184 0.034,-31.112 0.018,-62.224 0.02,-93.335 0,-2.594 0.815,-5.145 -3.736,-5.141 -4.32,0.004 -3.931,2.18 -3.928,4.969 0.034,30.479 0.014,60.955 0.029,91.431 0.001,4.303 -0.217,8.563 -1.742,12.645 -2.254,6.026 -6.734,9.151 -13.055,9.137 C 16.175,55.902 11.73,52.746 9.542,46.693 7.948,42.288 7.796,37.699 7.796,33.088 7.8,2.93 7.801,-27.23 7.795,-57.389 c 0,-4.465 -2.147,-5.968 -6.387,-4.656 -2.376,0.734 -1.35,2.613 -1.355,3.949 C -0.022,-38.73 0,-19.365 0,0"
             inkscape:connector-curvature="0" /></g><g
           transform="translate(489.3477,297.4375)"
           id="g24"><path
             id="path26"
             style="fill:#2b5e3d;fill-opacity:1;fill-rule:evenodd;stroke:none"
             d="m 0,0 c 0,23.969 0.021,47.938 -0.028,71.905 -0.007,2.603 -0.067,4.419 3.604,4.4 C 7.253,76.284 7.562,74.709 7.559,71.723 7.488,24.421 7.521,-22.881 7.475,-70.184 7.473,-72.865 7.129,-75.568 6.693,-78.219 4.77,-89.895 -2.752,-96.021 -14.896,-95.922 c -11.997,0.1 -19.503,6.486 -21.193,18.172 -0.404,2.818 -0.639,5.686 -0.642,8.529 -0.038,46.826 -0.04,93.652 0.024,140.478 0.002,1.877 -1.304,4.622 2.529,4.964 3.695,0.328 4.778,-0.807 4.765,-4.646 -0.144,-46.348 -0.088,-92.7 -0.1,-139.048 -0.002,-4.455 0.159,-8.884 1.575,-13.158 2.181,-6.586 6.565,-9.639 13.608,-9.545 6.581,0.086 11.013,3.385 12.934,9.838 1.136,3.82 1.422,7.772 1.414,11.768 C -0.021,-45.715 0,-22.859 0,0"
             inkscape:connector-curvature="0" /></g><g
           transform="translate(169.9912,238.8359)"
           id="g28"><path
             id="path30"
             style="fill:#2b5e3d;fill-opacity:1;fill-rule:evenodd;stroke:none"
             d="m 0,0 c 0,7.52 0.21,13.707 -0.05,19.873 -0.371,8.772 -5.175,14.025 -12.703,14.402 -9.385,0.473 -14.641,-3.213 -15.759,-12.539 -1.639,-13.685 -1.517,-27.494 0.001,-41.195 0.919,-8.285 5.39,-11.971 13.095,-12.119 8.421,-0.164 13.055,3.41 14.772,11.611 C 0.831,-12.916 -0.425,-5.754 0,0 m 0.252,36.594 c -0.513,10.666 0.84,20.529 -0.851,30.291 -1.527,8.814 -6.357,12.979 -14.341,12.828 -7.679,-0.145 -12.209,-4.367 -13.647,-13.087 -0.538,-3.265 -0.73,-6.622 -0.691,-9.933 0.028,-2.537 -0.484,-3.714 -3.349,-3.58 -2.491,0.117 -4.39,0.076 -4.012,3.461 0.422,3.773 0.201,7.635 0.817,11.367 1.935,11.719 9.528,17.805 21.608,17.659 C -2.104,85.454 5.127,79.289 6.916,67.396 7.387,64.273 7.627,61.086 7.637,57.928 7.697,36.662 7.73,15.398 7.64,-5.867 7.601,-14.742 7.267,-23.617 6.982,-32.49 c -0.041,-1.281 0.843,-3.223 -1.011,-3.69 -1.761,-0.441 -4.731,-1.035 -5.359,0.276 -1.31,2.724 -2.444,1.261 -3.866,0.681 -5.122,-2.084 -10.458,-2.59 -15.871,-1.732 -9.607,1.521 -15.712,7.66 -16.749,17.937 -1.383,13.745 -1.683,27.627 0.062,41.317 2.237,17.553 17,20.381 31.964,16.201 1.168,-0.326 2.232,-1.025 4.1,-1.906"
             inkscape:connector-curvature="0" /></g><g
           transform="translate(395.335,246.334)"
           id="g32"><path
             id="path34"
             style="fill:#efac32;fill-opacity:1;fill-rule:evenodd;stroke:none"
             d="m 0,0 c 0.448,10.932 -0.821,24.439 0.576,37.893 1.101,10.589 5.815,15.155 16.367,16.351 4.408,0.5 8.828,0.922 13.118,2.154 3.375,0.973 5.263,3.133 5.953,6.655 1.42,7.255 0.828,14.565 0.763,21.842 -0.077,8.705 0.91,17.459 -0.798,26.115 -1.564,7.906 -6.489,12.041 -14.174,11.938 C 14.444,122.852 9.771,118.637 8.191,110.873 7.104,105.525 7.261,100.127 7.389,94.742 7.459,91.894 7.005,90.42 3.586,90.49 c -3.108,0.067 -3.679,1.287 -3.631,4 0.115,6.656 -0.246,13.346 1.595,19.844 2.761,9.744 9.29,14.342 20.272,14.416 11.354,0.076 18.033,-4.422 20.942,-14.182 0.493,-1.662 0.965,-3.387 1.05,-5.103 0.79,-16.004 1.305,-32.02 -0.348,-47.996 C 42.852,55.508 39.34,51.809 33.469,50.137 28.7,48.777 23.799,48.447 18.964,47.629 11.159,46.309 7.621,42.846 7.538,34.941 7.291,11.926 7.419,-11.096 7.287,-34.113 c -0.014,-2.678 1.101,-3.112 3.397,-3.092 9.843,0.088 19.687,0.055 29.53,0.019 1.925,-0.005 4.187,0.731 4.231,-2.753 0.04,-3.307 -1.919,-2.989 -4.026,-2.983 -12.067,0.012 -24.132,0.115 -36.196,-0.066 -3.308,-0.051 -4.347,0.886 -4.294,4.246 C 0.114,-26.68 0,-14.611 0,0"
             inkscape:connector-curvature="0" /></g><g
           transform="translate(80.9375,288.7168)"
           id="g36"><path
             id="path38"
             style="fill:#2b5e3d;fill-opacity:1;fill-rule:evenodd;stroke:none"
             d="m 0,0 c 0,26.676 0.086,53.353 -0.09,80.027 -0.027,4.039 1.201,5.075 5.1,4.994 11.586,-0.24 23.181,-0.117 34.772,-0.06 2.29,0.012 3.853,-0.046 3.859,-3.168 0.005,-3.165 -1.618,-3.135 -3.878,-3.119 -9.527,0.06 -19.056,-0.078 -28.581,0.086 -2.911,0.05 -3.78,-0.785 -3.759,-3.746 0.133,-18.259 0.144,-36.52 -0.005,-54.78 -0.026,-3.247 1.086,-4.029 4.112,-3.961 7.777,0.176 15.561,0.014 23.341,0.085 2.328,0.023 3.855,-0.143 3.858,-3.22 C 38.734,9.894 36.915,10.07 34.74,10.08 27.118,10.119 19.489,9.895 11.878,10.184 8.248,10.322 7.391,9.197 7.409,5.662 c 0.144,-28.896 0.005,-57.799 0.174,-86.697 0.021,-3.697 -1.107,-4.445 -4.546,-4.404 -3.75,0.041 -3.025,2.355 -3.026,4.457 C -0.005,-56.688 0.001,-32.395 0,-8.1 Z"
             inkscape:connector-curvature="0" /></g><g
           transform="translate(256.8887,346.3652)"
           id="g40"><path
             id="path42"
             style="fill:#2b5e3d;fill-opacity:1;fill-rule:evenodd;stroke:none"
             d="m 0,0 c 42.227,0 84.453,0.014 126.681,-0.043 1.736,-0.002 4.305,1.211 4.456,-2.432 0.127,-3.086 -0.428,-4.494 -4.049,-4.455 -17.301,0.192 -34.604,0.086 -51.908,0.086 -67.307,0 -134.615,-0.011 -201.923,0.068 -1.75,0.003 -4.573,-1.589 -4.86,2.446 -0.258,3.635 0.925,4.426 4.449,4.414 C -84.769,-0.045 -42.384,0 0,0"
             inkscape:connector-curvature="0" /></g><g
           transform="translate(201.5869,320.6699)"
           id="g44"><path
             id="path46"
             style="fill:#2b5e3d;fill-opacity:1;fill-rule:evenodd;stroke:none"
             d="m 0,0 c 6.864,3.055 13.634,4.377 20.721,3.223 8.148,-1.328 12.651,-5.637 14.425,-13.713 1.689,-7.685 0.964,-15.496 1.133,-23.26 0.072,-3.279 -2.322,-2.271 -4.008,-2.377 -1.892,-0.119 -3.781,-0.428 -3.76,2.672 0.04,6.338 0.449,12.693 -0.649,19.01 -1.446,8.31 -5.882,11.913 -14.575,11.632 -6.998,-0.224 -12.521,-5.333 -13.298,-12.466 -0.272,-2.518 -0.288,-5.071 -0.29,-7.61 -0.018,-30.17 -0.049,-60.341 0.042,-90.515 0.01,-3.17 -0.264,-4.852 -4.233,-4.846 -4.071,0.008 -3.743,2.166 -3.741,4.826 0.026,37.635 0.005,75.272 0.052,112.906 0.003,2.094 -1.18,5.114 3.001,4.943 C -2.272,4.307 0.994,5.015 0,0"
             inkscape:connector-curvature="0" /></g><g
           transform="translate(346.3047,209.166)"
           id="g48"><path
             id="path50"
             style="fill:#2b5e3d;fill-opacity:1;fill-rule:evenodd;stroke:none"
             d="m 0,0 c 11.578,0 22.674,0.012 33.772,-0.012 1.94,-0.004 4.149,0.713 4.177,-2.775 0.025,-3.311 -1.886,-2.977 -4.001,-2.975 C 19.85,-5.74 5.75,-5.748 -9.01,-5.748 c 2.088,6.025 3.984,11.527 5.901,17.021 10.903,31.241 21.73,62.51 32.813,93.688 1.576,4.441 0.281,4.902 -3.699,4.803 -9.515,-0.235 -19.044,-0.034 -28.566,-0.106 -2.441,-0.017 -4.169,-0.047 -4.108,3.371 0.06,3.18 1.662,3.102 3.899,3.094 13.014,-0.051 26.032,-0.185 39.041,0.07 4.067,0.08 3.869,-1.341 2.83,-4.296 C 26.908,77.25 14.783,42.582 2.646,7.912 1.772,5.41 0.964,2.885 0,0"
             inkscape:connector-curvature="0" /></g></g></g></g></svg>