<svg xmlns="http://www.w3.org/2000/svg" width="87.312" height="36.514" viewBox="0 0 87.312 36.514"><defs><style>.a{fill:#fff;}.a,.b{fill-rule:evenodd;}.b{fill:#f2a133;}</style></defs><path class="a" d="M247.052,263.638c0-4-.005-7.994.01-11.992,0-.312-.226-.862.35-.856.427,0,1.116-.439,1.261.466.073.455.319.144.5.074,2.254-.871,4.408-1,6.276.872.251.252.355.111.541-.079,1.673-1.715,3.7-1.663,5.734-.955a3.793,3.793,0,0,1,2.336,3.246,9.069,9.069,0,0,1,.134,1.589c.009,6.562,0,13.124.017,19.687,0,.655-.034,1.058-.881,1-.6-.041-.7-.253-.691-.775.022-2.4.01-4.8.01-7.195q0-6.246,0-12.492a7.123,7.123,0,0,0-.377-2.453,2.676,2.676,0,0,0-2.672-1.872,2.706,2.706,0,0,0-2.73,1.787,6.266,6.266,0,0,0-.39,2.347q.01,9.794,0,19.587c0,.544.171,1.08-.784,1.079-.906,0-.825-.458-.824-1.043q.011-9.594.006-19.187a7.454,7.454,0,0,0-.366-2.654,2.9,2.9,0,0,0-5.465.018,8.252,8.252,0,0,0-.366,2.855q0,9.493,0,18.987c0,.937-.451,1.253-1.34.977-.5-.154-.284-.548-.285-.829C247.047,271.766,247.052,267.7,247.052,263.638Z" transform="translate(-212.146 -240.241)"/><path class="a" d="M460.176,218.271q0-7.545-.006-15.09c0-.546-.014-.927.757-.923s.836.335.836.962q-.022,14.89-.018,29.78a10.5,10.5,0,0,1-.164,1.686,4.559,4.559,0,0,1-8.978-.1,12.754,12.754,0,0,1-.135-1.79q-.012-14.74.005-29.48c0-.394-.274-.97.531-1.042.775-.069,1,.169,1,.975-.03,9.727-.018,19.454-.021,29.18a8.655,8.655,0,0,0,.33,2.761,2.924,2.924,0,0,0,5.57-.061,8.531,8.531,0,0,0,.3-2.469Q460.167,225.466,460.176,218.271Z" transform="translate(-374.45 -201.976)"/><path class="a" d="M140.8,261.847c-.108-2.238.176-4.308-.179-6.357-.32-1.85-1.334-2.724-3.01-2.692-1.611.03-2.562.916-2.864,2.746a12,12,0,0,0-.145,2.085c.006.532-.1.779-.7.751-.523-.025-.921-.016-.842-.726.089-.792.042-1.6.171-2.385a4.554,4.554,0,0,1,8.969.115,13.652,13.652,0,0,1,.151,1.987q.019,6.694,0,13.388c-.008,1.863-.078,3.725-.138,5.587-.009.269.177.676-.212.774-.37.093-.993.217-1.125-.058-.275-.572-.513-.265-.811-.143a6.147,6.147,0,0,1-3.33.363,3.923,3.923,0,0,1-3.515-3.764,38.287,38.287,0,0,1,.013-8.671c.469-3.683,3.567-4.277,6.708-3.4A6.778,6.778,0,0,1,140.8,261.847Zm-.053,7.679c0-1.578.044-2.877-.011-4.17-.078-1.841-1.086-2.943-2.666-3.022-1.97-.1-3.072.674-3.307,2.631a37.727,37.727,0,0,0,0,8.645,2.52,2.52,0,0,0,2.748,2.543,2.725,2.725,0,0,0,3.1-2.437A27.679,27.679,0,0,0,140.742,269.526Z" transform="translate(-122.035 -240.934)"/><path class="b" d="M395.254,227.934c.094-2.294-.172-5.129.121-7.952.231-2.222,1.22-3.18,3.435-3.431a16.7,16.7,0,0,0,2.753-.452,1.653,1.653,0,0,0,1.25-1.4,22.56,22.56,0,0,0,.16-4.584,29.332,29.332,0,0,0-.168-5.48,2.947,2.947,0,0,0-5.831.029,15.063,15.063,0,0,0-.168,3.385c.015.6-.081.907-.8.892-.652-.014-.772-.27-.762-.839a16.063,16.063,0,0,1,.335-4.164c.579-2.045,1.95-3.01,4.254-3.025,2.383-.016,3.784.928,4.395,2.976a4.65,4.65,0,0,1,.22,1.071,66.055,66.055,0,0,1-.073,10.072,2.623,2.623,0,0,1-2.1,2.378,27.812,27.812,0,0,1-3.044.526c-1.638.277-2.38,1-2.4,2.663-.052,4.83-.025,9.661-.053,14.491,0,.562.231.653.713.649,2.066-.018,4.131-.012,6.2,0,.4,0,.879-.153.888.578.008.694-.4.627-.845.626-2.533,0-5.064-.024-7.6.014-.694.011-.912-.186-.9-.891C395.278,233.533,395.254,231,395.254,227.934Z" transform="translate(-329.257 -200.915)"/><path class="a" d="M80.867,220.1c0-5.6.018-11.2-.019-16.794-.006-.848.252-1.065,1.07-1.048,2.432.05,4.865.025,7.3.013.481,0,.809.01.81.665s-.339.658-.814.655c-2-.013-4,.017-6-.018-.611-.01-.793.165-.789.786q.042,5.747,0,11.5c-.005.681.228.846.863.831,1.632-.037,3.266,0,4.9-.018.489,0,.809.03.81.676,0,.681-.381.644-.837.642-1.6-.008-3.2.039-4.8-.022-.762-.029-.941.207-.938.949.03,6.064,0,12.129.037,18.194,0,.776-.232.933-.954.924-.787-.009-.635-.494-.635-.935q-.005-7.648,0-15.295Z" transform="translate(-80.848 -201.976)"/><path class="a" d="M152.877,229.517q13.292,0,26.585.009c.365,0,.9-.254.935.51.027.648-.09.943-.85.935-3.631-.04-7.262-.018-10.893-.018q-21.187,0-42.374-.014c-.367,0-.96.333-1.02-.513-.054-.763.194-.929.933-.926C135.087,229.526,143.982,229.517,152.877,229.517Z" transform="translate(-115.933 -223.49)"/><path class="a" d="M195,251.828a7.5,7.5,0,0,1,4.348-.676,3.35,3.35,0,0,1,3.027,2.878,24.985,24.985,0,0,1,.238,4.881c.015.688-.487.477-.841.5-.4.025-.793.09-.789-.561a22.285,22.285,0,0,0-.136-3.989,2.607,2.607,0,0,0-3.059-2.441A2.866,2.866,0,0,0,195,255.035a15.007,15.007,0,0,0-.061,1.6q-.006,9.5.009,19c0,.665-.056,1.018-.888,1.017-.854,0-.785-.455-.785-1.013q.009-11.847.011-23.694c0-.439-.248-1.073.63-1.037C194.525,250.924,195.211,250.776,195,251.828Z" transform="translate(-169.665 -240.409)"/><path class="a" d="M339.186,275.022c2.43,0,4.758,0,7.087,0,.407,0,.871-.15.877.582.005.695-.4.625-.84.624-2.959,0-5.917,0-9.015,0,.438-1.264.836-2.419,1.238-3.572,2.288-6.556,4.56-13.118,6.886-19.661.331-.932.059-1.029-.776-1.008-2,.049-4,.007-5.995.022-.512,0-.875.01-.862-.707.012-.667.349-.651.818-.649,2.731.011,5.463.039,8.193-.015.853-.017.812.281.594.9q-3.838,10.907-7.65,21.822C339.558,273.887,339.388,274.417,339.186,275.022Z" transform="translate(-283.478 -240.203)"/></svg>