<svg xmlns="http://www.w3.org/2000/svg" width="27.003" height="27.003" viewBox="0 0 27.003 27.003"><defs><style>.a{fill:#ffd064;}.b{fill:#ffe07d;}.c{fill:#e8ae4d;}.d{fill:#e5a32e;}</style></defs><g transform="translate(0 -0.002)"><path class="a" d="M287.686,301.222,282.1,295.7l-6.662,4.526,6.59,6.65a.791.791,0,0,0,1.35-.559v-3.745h3.744a.791.791,0,0,0,.559-1.35Z" transform="translate(-260.915 -280.103)"/><path class="b" d="M5.754,296.842.232,302.3a.791.791,0,0,0,.559,1.35H4.536V307.4a.791.791,0,0,0,1.35.559l7-7.058Z" transform="translate(0 -281.185)"/><path class="c" d="M54.506,11.362,52.488,9.344l.739-2.756a.791.791,0,0,0-.559-.969l-2.756-.739-.739-2.756a.79.79,0,0,0-.969-.559L45.448,2.3,43.43.234a.791.791,0,0,0-1.119,0L40.294,2.3l-2.756-.739a.8.8,0,0,0-.969.559l-.739,2.756-2.756.739a.791.791,0,0,0-.559.969l.739,2.756-2.018,2.018a.791.791,0,0,0,0,1.119L33.254,14.5l-.739,2.756a.791.791,0,0,0,.559.969l2.756.739.739,2.756a.791.791,0,0,0,.969.559l2.756-.739,2.018,2.018a.791.791,0,0,0,1.119,0l2.018-2.018,2.756.739a.787.787,0,0,0,.969-.559l.739-2.756,2.756-.739a.791.791,0,0,0,.559-.969L52.488,14.5l2.018-2.018A.791.791,0,0,0,54.506,11.362Z" transform="translate(-29.369 0)"/><path class="d" d="M258.581,21.538l2.756.739a.787.787,0,0,0,.969-.559l.739-2.756,2.756-.739a.791.791,0,0,0,.559-.969l-.739-2.756,2.018-2.018a.791.791,0,0,0,0-1.119l-2.018-2.018.739-2.756a.791.791,0,0,0-.559-.969l-2.756-.739-.739-2.756a.79.79,0,0,0-.969-.559l-2.756.739L256.563.234A.788.788,0,0,0,256,0V23.788a.788.788,0,0,0,.559-.232Z" transform="translate(-242.502 0)"/><circle class="b" cx="7.5" cy="7.5" r="7.5" transform="translate(5.998 4.002)"/><path class="a" d="M263.5,98.5A7.5,7.5,0,0,0,256,91V106A7.5,7.5,0,0,0,263.5,98.5Z" transform="translate(-242.501 -86.954)"/><path class="c" d="M186.782,154.576a.791.791,0,0,0-.639-.538l-1.86-.27-.832-1.686a.823.823,0,0,0-1.418,0l-.832,1.686-1.86.27a.791.791,0,0,0-.439,1.349l1.347,1.313-.318,1.853a.791.791,0,0,0,1.147.834l1.664-.874,1.664.874a.791.791,0,0,0,1.147-.834l-.318-1.853,1.347-1.313A.792.792,0,0,0,186.782,154.576Z" transform="translate(-169.24 -143.675)"/><path class="d" d="M258.5,159.325a.791.791,0,0,0,.314-.773L258.5,156.7l1.347-1.313a.791.791,0,0,0-.439-1.349l-1.86-.27-.832-1.686a.772.772,0,0,0-.709-.406v6.836l1.664.874A.789.789,0,0,0,258.5,159.325Z" transform="translate(-242.502 -143.675)"/></g></svg>