<svg xmlns="http://www.w3.org/2000/svg" width="25.452" height="26" viewBox="0 0 25.452 26"><defs><style>.a{fill:none;stroke:#fff;stroke-linecap:round;stroke-linejoin:round;stroke-width:2px;}</style></defs><g transform="translate(1 1)"><path class="a" d="M3.439,13.94q-.046-.464-.047-.94t.047-.94L1,9.309,3.667,4.691l3.6.737A9.329,9.329,0,0,1,8.9,4.485L10.059,1h5.333l1.162,3.485a9.378,9.378,0,0,1,1.629.942l3.6-.737,2.667,4.619-2.44,2.751a9.358,9.358,0,0,1,0,1.88l2.44,2.751-2.667,4.619-3.6-.737a9.252,9.252,0,0,1-1.629.942L15.393,25H10.059L8.9,21.514a9.2,9.2,0,0,1-1.629-.942l-3.6.737L1,16.691Z" transform="translate(-1 -1)"/><circle class="a" cx="1.333" cy="1.333" r="1.333" transform="translate(10.392 10.667)"/></g></svg>